<?xml version="1.0" encoding="utf-8"?>
<!-- Generator: Adobe Illustrator 16.0.0, SVG Export Plug-In . SVG Version: 6.00 Build 0)  -->
<!DOCTYPE svg PUBLIC "-//W3C//DTD SVG 1.1//EN" "http://www.w3.org/Graphics/SVG/1.1/DTD/svg11.dtd">
<svg version="1.1" id="Layer_1" xmlns="http://www.w3.org/2000/svg" xmlns:xlink="http://www.w3.org/1999/xlink" x="0px" y="0px"
	 width="37px" height="25px" viewBox="0 0 37 25" enable-background="new 0 0 37 25" xml:space="preserve">
<g>
	<g>
		<path fill="#FA5C5D" d="M12.266,0.406v1.922c-2.75,1.438-4.719,2.938-5.906,4.5c-1.188,1.563-1.781,3.266-1.781,5.109
			c0,1.094,0.156,1.844,0.469,2.25c0.281,0.438,0.625,0.656,1.031,0.656c0.406,0,0.953-0.117,1.641-0.352
			c0.687-0.234,1.312-0.352,1.875-0.352c1.281,0,2.398,0.477,3.352,1.43c0.953,0.953,1.43,2.117,1.43,3.492
			c0,1.5-0.578,2.789-1.734,3.867s-2.594,1.617-4.312,1.617c-2.094,0-3.984-0.906-5.672-2.719s-2.531-4.047-2.531-6.703
			c0-3.125,1.039-6.039,3.117-8.742C5.32,3.68,8.328,1.688,12.266,0.406z M34.625,0.547v1.781c-3.156,1.812-5.234,3.438-6.234,4.875
			c-1,1.438-1.5,3.125-1.5,5.062c0,0.875,0.172,1.531,0.516,1.969s0.703,0.656,1.078,0.656c0.344,0,0.859-0.125,1.547-0.375
			s1.375-0.375,2.062-0.375c1.281,0,2.398,0.461,3.352,1.383s1.43,2.055,1.43,3.398c0,1.531-0.602,2.859-1.805,3.984
			s-2.68,1.688-4.43,1.688c-2.062,0-3.922-0.891-5.578-2.672s-2.484-4-2.484-6.656c0-3.281,1.047-6.273,3.141-8.977
			C27.812,3.586,30.781,1.672,34.625,0.547z"/>
	</g>
</g>
</svg>
